<?xml version="1.0" standalone="no"?>
<!DOCTYPE svg PUBLIC "-//W3C//DTD SVG 20010904//EN"
 "http://www.w3.org/TR/2001/REC-SVG-20010904/DTD/svg10.dtd">
<svg version="1.0" xmlns="http://www.w3.org/2000/svg"
 width="700.000000pt" height="700.000000pt" viewBox="0 0 700.000000 700.000000"
 preserveAspectRatio="xMidYMid meet">
<metadata>
Created by potrace 1.14, written by Peter Selinger 2001-2017
</metadata>
<g transform="translate(0.000000,700.000000) scale(0.100000,-0.100000)"
fill="#000000" stroke="none">
<path d="M1060 6995 c0 -2 174 -267 387 -587 212 -321 504 -761 648 -978 144
-217 472 -712 730 -1100 257 -387 469 -709 471 -715 3 -8 -482 -11 -1643 -11
l-1648 0 0 -104 0 -104 1715 -2 c943 -1 1718 -2 1722 -3 9 -1 228 -330 228
-341 0 -5 3 -10 8 -12 4 -1 23 -28 42 -58 19 -30 37 -57 40 -60 10 -9 70 -101
70 -106 0 -4 14 -23 30 -44 17 -21 30 -40 30 -44 0 -6 61 -98 71 -106 3 -3 8
-9 10 -15 4 -11 32 -53 900 -1360 344 -517 669 -1009 724 -1092 l100 -153 122
0 c113 0 122 1 115 17 -4 10 -169 261 -366 558 -198 297 -486 731 -641 965
-155 234 -492 742 -750 1130 -257 387 -469 709 -471 715 -3 7 490 11 1643 11
l1648 -1 0 105 0 104 -1710 2 c-940 0 -1715 2 -1722 2 -7 1 -68 86 -136 190
-149 224 -692 1043 -1315 1982 -250 377 -534 805 -631 952 l-176 268 -122 0
c-68 0 -123 -2 -123 -5z"/>
</g>
</svg>
